<svg width="50" height="50" viewBox="0 0 50 50" fill="none" xmlns="http://www.w3.org/2000/svg">
<rect width="50" height="50" rx="10" fill="#0079BF"/>
<path d="M25 38.4439L33.2495 30.4706C37.8056 26.0673 37.8056 18.9278 33.2495 14.5243C28.6935 10.1208 21.3065 10.1208 16.7504 14.5243C12.1943 18.9278 12.1943 26.0673 16.7504 30.4706L25 38.4439ZM25 43L14.3934 32.7488C8.53554 27.0871 8.53554 17.9078 14.3934 12.2462C20.2513 6.58459 29.7486 6.58459 35.6066 12.2462C41.4645 17.9078 41.4645 27.0871 35.6066 32.7488L25 43ZM25 25.7192C26.841 25.7192 28.3333 24.2768 28.3333 22.4975C28.3333 20.7182 26.841 19.2758 25 19.2758C23.159 19.2758 21.6667 20.7182 21.6667 22.4975C21.6667 24.2768 23.159 25.7192 25 25.7192ZM25 28.9408C21.3181 28.9408 18.3333 26.056 18.3333 22.4975C18.3333 18.9389 21.3181 16.0542 25 16.0542C28.6818 16.0542 31.6666 18.9389 31.6666 22.4975C31.6666 26.056 28.6818 28.9408 25 28.9408Z" fill="#F7F9FC"/>
</svg>
